<svg xmlns="http://www.w3.org/2000/svg" viewBox="0 0 288.94 302.94"><defs><style>.cls-1{fill:#fff;}</style></defs><title>Asset 3</title><g id="Layer_2" data-name="Layer 2"><g id="Layer_1-2" data-name="Layer 1"><path class="cls-1" d="M290,303.3H1V.36H290ZM250.65,82.87c-1.17-.83-2.06-1.55-3-2.12Q195.74,50.21,143.89,19.65c-3-1.79-5.37-1.48-8.26.23q-48.37,28.6-96.85,57c-1.17.69-2.23,1.56-3.59,2.53,1.09.8,1.59,1.23,2.15,1.57q49.7,30.28,99.36,60.62c2.66,1.64,4.45,1,6.78-.22Q195.24,113.21,247,85.1C248.2,84.47,249.28,83.72,250.65,82.87ZM242,220.06c-1.08-.77-1.59-1.19-2.15-1.54q-48.61-29.62-97.18-59.32c-2.84-1.74-4.76-1.05-7.21.28q-49.76,27.12-99.57,54.16c-1.27.69-2.47,1.49-4.15,2.5,1.42,1,2.42,1.8,3.5,2.46q50.69,31,101.35,62.07c2.76,1.7,4.6,1.31,7.14-.25q47-28.89,94.13-57.61C239.06,222.06,240.26,221.19,242,220.06Zm11-124.4-101.24,55L253,212.34ZM127.44,150.08,27,88.91V204.64Z" transform="translate(-1.03 -0.36)"/><path d="M250.65,82.87c-1.37.85-2.46,1.6-3.61,2.23q-51.78,28.15-103.56,56.31c-2.33,1.27-4.11,1.85-6.78.22Q87.11,111.18,37.34,81c-.56-.34-1.07-.77-2.15-1.57,1.35-1,2.42-1.84,3.59-2.53q48.43-28.51,96.85-57c2.89-1.71,5.23-2,8.26-.23Q195.7,50.29,247.61,80.74C248.59,81.32,249.48,82,250.65,82.87Z" transform="translate(-1.03 -0.36)"/><path d="M242,220.06c-1.7,1.14-2.89,2-4.15,2.77q-47.07,28.79-94.13,57.61c-2.53,1.56-4.38,1.95-7.14.25q-50.6-31.16-101.35-62.07c-1.08-.66-2.08-1.46-3.5-2.46,1.68-1,2.89-1.81,4.15-2.5q49.78-27.08,99.57-54.16c2.45-1.34,4.37-2,7.21-.28q48.5,29.81,97.18,59.32C240.37,218.87,240.88,219.29,242,220.06Z" transform="translate(-1.03 -0.36)"/><path d="M253,95.66V212.34L151.74,150.69Z" transform="translate(-1.03 -0.36)"/><path d="M127.44,150.08,27,204.64V88.91Z" transform="translate(-1.03 -0.36)"/></g></g></svg>